HIERARCHY
ROOT Hips
{
	OFFSET 0.00000 0.00000 0.00000
	CHANNELS 6 Xposition Yposition Zposition Zrotation Yrotation Xrotation 
	JOINT LHipJoint
	{
		OFFSET 0 0 0
		CHANNELS 3 Zrotation Yrotation Xrotation
		JOINT LeftUpLeg
		{
			OFFSET 1.53139 -1.83434 0.76626
			CHANNELS 3 Zrotation Yrotation Xrotation
			JOINT LeftLeg
			{
				OFFSET 2.56112 -7.03663 0.00000
				CHANNELS 3 Zrotation Yrotation Xrotation
				JOINT LeftFoot
				{
					OFFSET 2.59983 -7.14299 0.00000
					CHANNELS 3 Zrotation Yrotation Xrotation
					JOINT LeftToeBase
					{
						OFFSET 0.13742 -0.37757 2.00054
						CHANNELS 3 Zrotation Yrotation Xrotation
						End Site
						{
							OFFSET 0.00000 -0.00000 1.02897
						}
					}
				}
			}
		}
	}
	JOINT RHipJoint
	{
		OFFSET 0 0 0
		CHANNELS 3 Zrotation Yrotation Xrotation
		JOINT RightUpLeg
		{
			OFFSET -1.40122 -1.83435 0.76627
			CHANNELS 3 Zrotation Yrotation Xrotation
			JOINT RightLeg
			{
				OFFSET -2.54052 -6.98003 0.00000
				CHANNELS 3 Zrotation Yrotation Xrotation
				JOINT RightFoot
				{
					OFFSET -2.63179 -7.23079 0.00000
					CHANNELS 3 Zrotation Yrotation Xrotation
					JOINT RightToeBase
					{
						OFFSET -0.24131 -0.66299 2.03908
						CHANNELS 3 Zrotation Yrotation Xrotation
						End Site
						{
							OFFSET -0.00000 -0.00000 1.07391
						}
					}
				}
			}
		}
	}
	JOINT LowerBack
	{
		OFFSET 0 0 0
		CHANNELS 3 Zrotation Yrotation Xrotation
		JOINT Spine
		{
			OFFSET 0.01174 2.10302 -0.29778
			CHANNELS 3 Zrotation Yrotation Xrotation
			JOINT Spine1
			{
				OFFSET 0.00772 2.13227 -0.01247
				CHANNELS 3 Zrotation Yrotation Xrotation
				JOINT Neck
				{
					OFFSET 0 0 0
					CHANNELS 3 Zrotation Yrotation Xrotation
					JOINT Neck1
					{
						OFFSET -0.09219 1.60848 0.31481
						CHANNELS 3 Zrotation Yrotation Xrotation
						JOINT Head
						{
							OFFSET 0.13974 1.65456 -0.31134
							CHANNELS 3 Zrotation Yrotation Xrotation
							End Site
							{
								OFFSET 0.04742 1.69515 -0.14578
							}
						}
					}
				}
				JOINT LeftShoulder
				{
					OFFSET 0 0 0
					CHANNELS 3 Zrotation Yrotation Xrotation
					JOINT LeftArm
					{
						OFFSET 3.24909 1.02882 -0.23993
						CHANNELS 3 Zrotation Yrotation Xrotation
						JOINT LeftForeArm
						{
							OFFSET 5.32955 -0.00000 -0.00000
							CHANNELS 3 Zrotation Yrotation Xrotation
							JOINT LeftHand
							{
								OFFSET 3.69232 -0.00000 -0.00000
								CHANNELS 3 Zrotation Yrotation Xrotation
								JOINT LeftFingerBase
								{
									OFFSET 0 0 0
									CHANNELS 3 Zrotation Yrotation Xrotation
									JOINT LeftHandIndex1
									{
										OFFSET 0.53660 -0.00000 -0.00000
										CHANNELS 3 Zrotation Yrotation Xrotation
										End Site
										{
											OFFSET 0.43262 -0.00000 -0.00000
										}
									}
								}
								JOINT LThumb
								{
									OFFSET 0 0 0
									CHANNELS 3 Zrotation Yrotation Xrotation
									End Site
									{
										OFFSET 0.43922 -0.00000 0.43922
									}
								}
							}
						}
					}
				}
				JOINT RightShoulder
				{
					OFFSET 0 0 0
					CHANNELS 3 Zrotation Yrotation Xrotation
					JOINT RightArm
					{
						OFFSET -3.21387 0.93002 -0.34594
						CHANNELS 3 Zrotation Yrotation Xrotation
						JOINT RightForeArm
						{
							OFFSET -5.23431 -0.00000 0.00000
							CHANNELS 3 Zrotation Yrotation Xrotation
							JOINT RightHand
							{
								OFFSET -3.55301 -0.00000 -0.00000
								CHANNELS 3 Zrotation Yrotation Xrotation
								JOINT RightFingerBase
								{
									OFFSET 0 0 0
									CHANNELS 3 Zrotation Yrotation Xrotation
									JOINT RightHandIndex1
									{
										OFFSET -0.77252 -0.00000 -0.00000
										CHANNELS 3 Zrotation Yrotation Xrotation
										End Site
										{
											OFFSET -0.62283 -0.00000 -0.00000
										}
									}
								}
								JOINT RThumb
								{
									OFFSET 0 0 0
									CHANNELS 3 Zrotation Yrotation Xrotation
									End Site
									{
										OFFSET -0.63234 -0.00000 0.63234
									}
								}
							}
						}
					}
				}
			}
		}
	}
}
MOTION
Frames: 7
Frame Time: .0083333
-13.6941 17.792 -12.5121 0 0 0 0 0 0 -21 0 0 0 0 0 0 0 0 0 0 0 0 0 0 21 0 0 0 0 0 0 0 0 0 0 0 0 0 0 0 0 0 0 0 0 0 0 -16 0 0 21 0 0 11 0 0 0 -8 0 0 0 0 0 0 0 0 0 0 0 0 0 0 0 0 0 0 0 0 8 0 0 0 0 0 0 0 0 0 0 0 0 0 0 0 0 0
-13.6941 17.7920 -12.5121 -1.1614 33.4036 1.5603 0.0000 0.0000 0.0000 -18.0462 -9.3391 -20.2364 0.7240 5.4370 15.1594 -0.0281 -3.6705 -0.9535 0.1557 -2.5424 -7.0073 0.0000 0.0000 0.0000 24.7240 -5.3704 11.8378 -0.5092 -4.5742 12.6980 -0.3859 -1.1698 -12.2177 -0.7066 5.3727 -14.9748 2.7558 3.1861 10.5105 0.6506 4.6035 0.6985 -1.5337 2.2202 -4.9904 -12.4061 -7.3867 -16.2342 8.1498 -9.4771 33.0768 3.8731 -4.3834 15.3706 -0.0000 0.0000 0.0000 -89.9409 5.4011 7.7701 13.5431 -22.0778 -2.6539 -0.0000 -0.0000 8.8071 23.3224 25.1091 10.3675 -7.1250 0.0000 -0.0000 -6.9528 56.8810 -2.0311 -0.0000 0.0000 0.0000 88.3231 0.2478 14.2976 -15.0687 24.2417 -3.2541 0.0000 0.0000 7.3930 -17.7530 8.0460 -2.5658 7.1250 -0.0000 -0.0000 6.5909 -21.5588 3.7322
-13.6113 17.8044 -12.4303 -1.0216 33.3682 1.6312 0.0000 0.0000 0.0000 -18.3660 -9.0582 -19.9486 0.7100 5.3854 15.0110 -0.0297 -3.7326 -0.9196 0.2021 -2.8946 -7.9856 0.0000 0.0000 0.0000 24.5047 -5.2540 11.8322 -0.5796 -4.8749 13.5521 -0.3514 -1.3047 -11.7490 -0.6509 5.1607 -14.3675 2.6760 3.2256 10.4889 0.5557 4.6414 0.6549 -1.5935 2.2385 -5.0207 -12.3618 -7.4098 -16.1431 8.1417 -9.5365 33.1414 3.8548 -4.4055 15.3852 -0.0000 0.0000 0.0000 -89.8084 5.4440 7.7505 13.5194 -22.0434 -2.6450 -0.0000 -0.0000 9.1571 23.2509 25.0620 10.3149 -7.1250 0.0000 -0.0000 -7.0098 56.8168 -2.0370 -0.0000 0.0000 0.0000 88.4565 -0.0444 14.1473 -15.2263 24.4605 -3.3191 0.0000 0.0000 6.9588 -17.3986 7.7410 -2.4169 7.1250 -0.0000 -0.0000 6.8531 -21.8933 3.8303
-13.5252 17.8158 -12.3456 -0.6863 33.4181 1.8176 0.0000 0.0000 0.0000 -18.8269 -8.8890 -19.5379 0.6950 5.3293 14.8504 -0.0395 -3.9600 -0.4816 0.1251 -2.2796 -6.2791 0.0000 0.0000 0.0000 24.0901 -5.1647 11.6575 -0.6716 -5.2406 14.5962 -0.3181 -1.3474 -11.2314 -0.5354 4.6885 -13.0221 2.4478 3.2209 10.3813 0.4004 4.5965 0.6507 -1.6148 2.2209 -4.9718 -12.3130 -7.4162 -16.1854 8.1937 -9.5802 33.2084 3.8620 -4.4099 15.4334 0.0000 0.0000 0.0000 -89.6419 5.3957 7.8194 13.5132 -22.0346 -2.6427 -0.0000 -0.0000 9.1261 22.8220 24.9069 10.0498 -7.1250 0.0000 -0.0000 -7.4041 56.5640 -2.1071 0.0000 0.0000 0.0000 88.6566 -0.2683 13.9657 -15.4075 24.7107 -3.3945 0.0000 0.0000 6.5062 -17.3200 7.4955 -2.3295 7.1250 -0.0000 -0.0000 6.9153 -22.1519 3.8246
-13.4362 17.8311 -12.2570 -0.3605 33.4389 2.0046 0.0000 0.0000 0.0000 -19.2786 -8.5744 -19.1208 0.6845 5.2896 14.7364 -0.0546 -4.3552 0.1568 0.0752 -1.7687 -4.8667 0.0000 0.0000 0.0000 23.6719 -5.0564 11.4587 -0.7696 -5.6018 15.6332 -0.2889 -1.3525 -10.7386 -0.4764 4.4267 -12.2803 2.1606 3.2156 10.1945 0.3116 4.5455 0.6941 -1.5263 2.2042 -4.8389 -12.3827 -7.4385 -16.3098 8.2034 -9.5847 33.2738 3.8767 -4.4167 15.5007 -0.0000 -0.0000 0.0000 -89.6136 5.2692 7.9446 13.5137 -22.0353 -2.6429 -0.0000 -0.0000 8.8993 22.9234 24.9603 10.1184 -7.1250 0.0000 -0.0000 -7.3183 56.6410 -2.0961 -0.0000 -0.0000 0.0000 88.7652 -0.5015 13.7414 -15.6130 24.9931 -3.4808 0.0000 0.0000 6.3540 -17.5996 7.7858 -2.4606 7.1250 -0.0000 -0.0000 6.7063 -21.8372 3.7558
-13.3489 17.8455 -12.1691 -0.3476 33.4601 1.9628 0.0000 0.0000 0.0000 -19.4867 -8.0491 -18.7044 0.6738 5.2490 14.6201 -0.0638 -4.6278 0.4300 0.1375 -2.3897 -6.5839 0.0000 0.0000 0.0000 23.5655 -4.8837 11.2856 -0.8835 -5.9919 16.7609 -0.2665 -1.3570 -10.3433 -0.5044 4.5526 -12.6368 2.0932 3.2033 10.1018 0.3384 4.5202 0.7170 -1.4507 2.1950 -4.7714 -12.5737 -7.4870 -16.2936 8.2228 -9.6047 33.2784 3.9140 -4.4477 15.5180 -0.0000 -0.0000 0.0000 -89.7063 5.1967 7.8186 13.5006 -22.0162 -2.6380 -0.0000 -0.0000 9.1149 23.0422 25.2535 10.2851 -7.1250 0.0000 -0.0000 -7.3153 56.9699 -2.1535 -0.0000 -0.0000 0.0000 88.8063 -0.8317 13.5078 -15.7764 25.2165 -3.5501 0.0000 0.0000 6.4697 -17.7265 7.8806 -2.5095 7.1250 -0.0000 -0.0000 6.6127 -21.7323 3.7185
-13.2602 17.8521 -12.0834 -0.3673 33.5077 1.8262 0.0000 0.0000 0.0000 -19.6405 -7.5763 -18.2118 0.6680 5.2269 14.5569 -0.0653 -4.6789 0.4437 0.1929 -2.8283 -7.8010 0.0000 0.0000 0.0000 23.4391 -4.8642 11.1059 -1.0129 -6.4035 17.9598 -0.2439 -1.3162 -9.9035 -0.4487 4.2977 -11.9157 2.1449 3.1402 10.1647 0.3055 4.4425 0.7036 -1.5076 2.1542 -4.8169 -12.6109 -7.4459 -16.3272 8.2910 -9.5579 33.3858 3.9632 -4.4233 15.5783 -0.0000 -0.0000 0.0000 -89.7469 5.2282 7.4145 13.5101 -22.0300 -2.6416 -0.0000 -0.0000 9.5331 22.8101 24.8542 10.0246 -7.1250 0.0000 -0.0000 -7.3948 56.5071 -2.0942 -0.0000 -0.0000 0.0000 88.9363 -1.1378 13.3356 -15.8376 25.2999 -3.5763 0.0000 0.0000 6.4941 -17.7014 7.9252 -2.5198 7.1250 -0.0000 -0.0000 6.6301 -21.6872 3.7352
